<svg xmlns="http://www.w3.org/2000/svg" width="81" height="105" viewBox="0 0 81 105" fill="none">
  <path d="M0 105C0 106.657 1.34315 108 3 108C4.65685 108 6 106.657 6 105H0ZM74.375 105C74.375 106.657 75.7181 108 77.375 108C79.0319 108 80.375 106.657 80.375 105H74.375ZM3.43177 33.7017C1.79217 33.4632 0.269697 34.599 0.031234 36.2386C-0.207228 37.8783 0.928621 39.4007 2.56823 39.6392L3.43177 33.7017ZM19.6303 38.7513L19.9295 35.7662L19.6303 38.7513ZM60.7447 38.7513L61.0439 41.7363L60.7447 38.7513ZM77.8063 39.6393C79.446 39.401 80.582 37.8787 80.3438 36.2391C80.1056 34.5995 78.5833 33.4634 76.9437 33.7016L77.8063 39.6393ZM43.1875 0.00015004C43.1875 -1.6567 41.8444 -2.99985 40.1875 -2.99985C38.5306 -2.99985 37.1875 -1.6567 37.1875 0.00015004H43.1875ZM37.1875 8.28251C37.1875 9.93936 38.5306 11.2825 40.1875 11.2825C41.8444 11.2825 43.1875 9.93936 43.1875 8.28251H37.1875ZM65.1844 38.0056C65.1844 52.2279 53.8378 63.9011 40.1875 63.9011V69.9011C57.3443 69.9011 71.1844 55.3455 71.1844 38.0056H65.1844ZM40.1875 63.9011C26.5332 63.9011 15.1588 52.2207 15.1588 38.0025H9.15878C9.15878 55.3464 23.0346 69.9011 40.1875 69.9011V63.9011ZM6 105C6 99.693 6.0046 94.8827 6.55697 90.5496C7.10626 86.2407 8.17277 82.6488 10.1359 79.7371C13.928 74.1126 21.9007 69.9011 40.1875 69.9011V63.9011C21.2868 63.9011 10.6657 68.2184 5.16099 76.3829C2.47566 80.3658 1.21796 84.9836 0.605138 89.7908C-0.00459933 94.5739 0 99.7863 0 105H6ZM40.1207 69.9004C58.4424 70.3085 66.4483 74.5098 70.251 80.0652C72.2082 82.9245 73.2709 86.4352 73.8187 90.6714C74.3702 94.9363 74.375 99.6913 74.375 105H80.375C80.375 99.788 80.3798 94.6238 79.7692 89.9019C79.1549 85.1514 77.8934 80.6078 75.2022 76.6761C69.7079 68.6495 59.1201 64.3221 40.2543 63.9019L40.1207 69.9004ZM2.56823 39.6392L11.727 40.9712L12.5906 35.0337L3.43177 33.7017L2.56823 39.6392ZM11.8596 40.9875L19.3311 41.7363L19.9295 35.7662L12.458 35.0174L11.8596 40.9875ZM61.0439 41.7363L68.4836 40.9907L67.8853 35.0206L60.4455 35.7662L61.0439 41.7363ZM68.6158 40.9745L77.8063 39.6393L76.9437 33.7016L67.7531 35.0368L68.6158 40.9745ZM19.3311 41.7363C33.2008 43.1264 47.1742 43.1264 61.0439 41.7363L60.4455 35.7662C46.9738 37.1164 33.4012 37.1164 19.9295 35.7662L19.3311 41.7363ZM10.1319 37.2708C10.1319 20.6244 23.5946 7.14133 40.1875 7.14133V1.14133C20.2683 1.14133 4.13194 17.3233 4.13194 37.2708H10.1319ZM40.1875 7.14133C56.7804 7.14133 70.2431 20.6244 70.2431 37.2708H76.2431C76.2431 17.3233 60.1067 1.14133 40.1875 1.14133V7.14133ZM37.1875 0.00015004V4.14133H43.1875V0.00015004H37.1875ZM37.1875 4.14133V8.28251H43.1875V4.14133H37.1875Z" fill="white"/>
</svg>