<svg xmlns="http://www.w3.org/2000/svg" width="33" height="34" viewBox="0 0 33 34" fill="none">
  <g clip-path="url(#clip0_3067_154)">
    <path d="M19.698 10.5356C19.5508 10.6206 19.4135 10.7229 19.29 10.8289L17.515 7.75454C16.825 6.55942 15.295 6.14947 14.0999 6.83947C13.9354 6.93447 13.7895 7.04179 13.6623 7.16143C12.8954 6.25318 11.5671 5.99242 10.5018 6.60742C9.58385 7.13742 9.13443 8.159 9.279 9.1494C9.06714 9.20244 8.85295 9.29146 8.65376 9.40646C7.45865 10.0965 7.0487 11.6264 7.7387 12.8215L8.0137 13.2978C7.86014 13.3519 7.70291 13.4195 7.55569 13.5045C6.36057 14.1945 5.95062 15.7245 6.64062 16.9196L10.8906 24.2808C13.2356 28.3425 18.4402 29.737 22.5018 27.392C26.5635 25.047 27.9581 19.8425 25.6131 15.7808L23.1131 11.4507C22.4231 10.2556 20.8931 9.84562 19.698 10.5356ZM23.881 16.7808C25.676 19.8898 24.6109 23.865 21.5018 25.66C18.3928 27.455 14.4177 26.3898 12.6227 23.2808L8.37268 15.9196C8.23268 15.6771 8.3132 15.3766 8.55569 15.2366C8.79818 15.0966 9.0987 15.1771 9.2387 15.4196L11.7387 19.7497L13.4708 18.7497L9.47075 11.8215C9.33075 11.579 9.41128 11.2785 9.65376 11.1385C9.89625 10.9985 10.1968 11.079 10.3368 11.3215L13.8368 17.3837L15.5688 16.3837L11.3188 9.02249C11.1788 8.78 11.2594 8.47947 11.5018 8.33947C11.7443 8.19947 12.0449 8.28 12.1849 8.52249L16.4349 15.8837L18.1669 14.8837L14.9169 9.25454C14.7769 9.01205 14.8574 8.71152 15.0999 8.57152C15.3424 8.43152 15.6429 8.51205 15.7829 8.75454L20.2429 16.4795C19.0951 18.0313 18.9099 20.1705 19.9349 21.9459L21.6669 20.9459C20.8369 19.5083 21.3274 17.6778 22.765 16.8478L20.515 12.9507C20.375 12.7082 20.4555 12.4077 20.698 12.2677C20.9405 12.1277 21.241 12.2082 21.381 12.4507L23.881 16.7808Z" fill="white"/>
  </g>
  <defs>
    <clipPath id="clip0_3067_154">
      <rect width="24" height="24" fill="white" transform="translate(0.109375 12.6074) rotate(-30)"/>
    </clipPath>
  </defs>
</svg>