<svg width="260" height="184" viewBox="0 0 260 184" fill="none" xmlns="http://www.w3.org/2000/svg">
<g filter="url(#filter0_bi_2867_1120)">
<rect width="259.456" height="183.456" rx="40" fill="url(#paint0_linear_2867_1120)" fill-opacity="0.3"/>
<path d="M108.776 73.4706V81.7059M108.776 81.7059V89.9412M108.776 81.7059H100.487M108.776 81.7059H117.066M142.255 106.412H116.745C111.708 106.412 106.945 108.686 103.799 112.593L95.7637 122.571C93.5096 125.37 90.0968 127 86.4884 127C82.3161 127 78.5256 124.723 77.7689 120.647C76.7071 114.927 76.2507 105.063 79.7632 89.9412C81.4681 82.6016 83.173 76.8102 84.7497 72.2699C88.3348 61.9462 98.373 57 109.366 57H149.634C160.627 57 170.665 61.9464 174.25 72.2702C175.827 76.8105 177.532 82.6018 179.237 89.9412C182.749 105.063 182.293 114.927 181.231 120.647C180.474 124.723 176.684 127 172.512 127C168.903 127 165.49 125.37 163.236 122.571L155.201 112.593C152.055 108.686 147.292 106.412 142.255 106.412Z" stroke="white" stroke-width="6" stroke-linecap="round"/>
<path d="M146.086 89.5404C146.086 87.9486 147.385 86.6581 148.988 86.6581H151.475C153.077 86.6581 154.376 87.9486 154.376 89.5404V92.011C154.376 93.6029 153.077 94.8934 151.475 94.8934H148.988C147.385 94.8934 146.086 93.6029 146.086 92.011V89.5404Z" fill="white"/>
<path d="M146.086 73.0699C146.086 71.478 147.385 70.1875 148.988 70.1875H151.475C153.077 70.1875 154.376 71.478 154.376 73.0699V75.5404C154.376 77.1323 153.077 78.4228 151.475 78.4228H148.988C147.385 78.4228 146.086 77.1323 146.086 75.5404V73.0699Z" fill="white"/>
<path d="M154.376 81.3051C154.376 79.7133 155.675 78.4228 157.277 78.4228H159.764C161.366 78.4228 162.665 79.7133 162.665 81.3051V83.7757C162.665 85.3676 161.366 86.6581 159.764 86.6581H157.277C155.675 86.6581 154.376 85.3676 154.376 83.7757V81.3051Z" fill="white"/>
<path d="M137.797 81.3051C137.797 79.7133 139.096 78.4228 140.698 78.4228H143.185C144.787 78.4228 146.086 79.7133 146.086 81.3051V83.7757C146.086 85.3676 144.787 86.6581 143.185 86.6581H140.698C139.096 86.6581 137.797 85.3676 137.797 83.7757V81.3051Z" fill="white"/>
</g>
<defs>
<filter id="filter0_bi_2867_1120" x="-25" y="-25" width="309.453" height="233.455" filterUnits="userSpaceOnUse" color-interpolation-filters="sRGB">
<feFlood flood-opacity="0" result="BackgroundImageFix"/>
<feGaussianBlur in="BackgroundImageFix" stdDeviation="12.5"/>
<feComposite in2="SourceAlpha" operator="in" result="effect1_backgroundBlur_2867_1120"/>
<feBlend mode="normal" in="SourceGraphic" in2="effect1_backgroundBlur_2867_1120" result="shape"/>
<feColorMatrix in="SourceAlpha" type="matrix" values="0 0 0 0 0 0 0 0 0 0 0 0 0 0 0 0 0 0 127 0" result="hardAlpha"/>
<feOffset dy="4"/>
<feGaussianBlur stdDeviation="20"/>
<feComposite in2="hardAlpha" operator="arithmetic" k2="-1" k3="1"/>
<feColorMatrix type="matrix" values="0 0 0 0 1 0 0 0 0 1 0 0 0 0 1 0 0 0 0.35 0"/>
<feBlend mode="normal" in2="shape" result="effect2_innerShadow_2867_1120"/>
</filter>
<linearGradient id="paint0_linear_2867_1120" x1="6.48639" y1="8.47487" x2="235.364" y2="179.159" gradientUnits="userSpaceOnUse">
<stop stop-color="#FFA636" stop-opacity="0.1"/>
<stop offset="0.411883" stop-color="#FFA636" stop-opacity="0.8"/>
<stop offset="0.574748" stop-color="#FFA636"/>
<stop offset="1" stop-color="#FFA636"/>
</linearGradient>
</defs>
</svg>
