<svg xmlns="http://www.w3.org/2000/svg" width="111" height="76" viewBox="0 0 111 76" fill="none">
  <path d="M34.7763 19.4706V27.7059M34.7763 27.7059V35.9412M34.7763 27.7059H26.4868M34.7763 27.7059H43.0658M68.2554 52.4118H42.7446C37.7081 52.4118 32.9448 54.6862 29.7986 58.5933L21.7637 68.5712C19.5096 71.3705 16.0968 73 12.4884 73C8.31608 73 4.5256 70.7234 3.76895 66.6471C2.70709 60.9266 2.25067 51.0626 5.7632 35.9412C7.46812 28.6016 9.17303 22.8102 10.7497 18.2699C14.3348 7.94624 24.373 3 35.3656 3H75.6342C86.627 3 96.6654 7.94637 100.25 18.2702C101.827 22.8105 103.532 28.6018 105.237 35.9412C108.749 51.0625 108.293 60.9265 107.231 66.6471C106.474 70.7234 102.684 73 98.5115 73C94.9031 73 91.4903 71.3704 89.2362 68.5712L81.2014 58.5933C78.0552 54.6862 73.2918 52.4118 68.2554 52.4118Z" stroke="white" stroke-width="6" stroke-linecap="round"/>
  <path d="M72.0863 35.5404C72.0863 33.9486 73.3853 32.6581 74.9877 32.6581H77.4745C79.0769 32.6581 80.3758 33.9486 80.3758 35.5404V38.011C80.3758 39.6029 79.0769 40.8934 77.4745 40.8934H74.9877C73.3853 40.8934 72.0863 39.6029 72.0863 38.011V35.5404Z" fill="white"/>
  <path d="M72.0863 19.0699C72.0863 17.478 73.3853 16.1875 74.9877 16.1875H77.4745C79.0769 16.1875 80.3758 17.478 80.3758 19.0699V21.5404C80.3758 23.1323 79.0769 24.4228 77.4745 24.4228H74.9877C73.3853 24.4228 72.0863 23.1323 72.0863 21.5404V19.0699Z" fill="white"/>
  <path d="M80.3758 27.3051C80.3758 25.7133 81.6748 24.4228 83.2771 24.4228H85.764C87.3663 24.4228 88.6653 25.7133 88.6653 27.3051V29.7757C88.6653 31.3676 87.3663 32.6581 85.764 32.6581H83.2771C81.6748 32.6581 80.3758 31.3676 80.3758 29.7757V27.3051Z" fill="white"/>
  <path d="M63.7969 27.3051C63.7969 25.7133 65.0958 24.4228 66.6982 24.4228H69.185C70.7874 24.4228 72.0863 25.7133 72.0863 27.3051V29.7757C72.0863 31.3676 70.7874 32.6581 69.185 32.6581H66.6982C65.0958 32.6581 63.7969 31.3676 63.7969 29.7757V27.3051Z" fill="white"/>
</svg>