<svg width="260" height="184" viewBox="0 0 260 184" fill="none" xmlns="http://www.w3.org/2000/svg">
<g filter="url(#filter0_bi_2867_1030)">
<rect width="259.456" height="183.456" rx="40" fill="url(#paint0_linear_2867_1030)" fill-opacity="0.3"/>
<g clip-path="url(#clip0_2867_1030)">
<path d="M89 144C89 145.657 90.3431 147 92 147C93.6569 147 95 145.657 95 144H89ZM163.375 144C163.375 145.657 164.718 147 166.375 147C168.032 147 169.375 145.657 169.375 144H163.375ZM92.4318 72.7017C90.7922 72.4632 89.2697 73.599 89.0312 75.2386C88.7928 76.8783 89.9286 78.4007 91.5682 78.6392L92.4318 72.7017ZM108.63 77.7513L108.929 74.7662L108.63 77.7513ZM149.745 77.7513L150.044 80.7363L149.745 77.7513ZM166.806 78.6393C168.446 78.401 169.582 76.8787 169.344 75.2391C169.106 73.5995 167.583 72.4634 165.944 72.7016L166.806 78.6393ZM132.188 39.0002C132.188 37.3433 130.844 36.0001 129.188 36.0001C127.531 36.0001 126.188 37.3433 126.188 39.0002H132.188ZM126.188 47.2825C126.188 48.9394 127.531 50.2825 129.188 50.2825C130.844 50.2825 132.188 48.9394 132.188 47.2825H126.188ZM154.184 77.0056C154.184 91.2279 142.838 102.901 129.188 102.901V108.901C146.344 108.901 160.184 94.3455 160.184 77.0056H154.184ZM129.188 102.901C115.533 102.901 104.159 91.2207 104.159 77.0025H98.1588C98.1588 94.3464 112.035 108.901 129.188 108.901V102.901ZM95 144C95 138.693 95.0046 133.883 95.557 129.55C96.1063 125.241 97.1728 121.649 99.1359 118.737C102.928 113.113 110.901 108.901 129.188 108.901V102.901C110.287 102.901 99.6657 107.218 94.161 115.383C91.4757 119.366 90.218 123.984 89.6051 128.791C88.9954 133.574 89 138.786 89 144H95ZM129.121 108.9C147.442 109.308 155.448 113.51 159.251 119.065C161.208 121.924 162.271 125.435 162.819 129.671C163.37 133.936 163.375 138.691 163.375 144H169.375C169.375 138.788 169.38 133.624 168.769 128.902C168.155 124.151 166.893 119.608 164.202 115.676C158.708 107.649 148.12 103.322 129.254 102.902L129.121 108.9ZM91.5682 78.6392L100.727 79.9712L101.591 74.0337L92.4318 72.7017L91.5682 78.6392ZM100.86 79.9875L108.331 80.7363L108.929 74.7662L101.458 74.0174L100.86 79.9875ZM150.044 80.7363L157.484 79.9907L156.885 74.0206L149.446 74.7662L150.044 80.7363ZM157.616 79.9745L166.806 78.6393L165.944 72.7016L156.753 74.0368L157.616 79.9745ZM108.331 80.7363C122.201 82.1264 136.174 82.1264 150.044 80.7363L149.446 74.7662C135.974 76.1164 122.401 76.1164 108.929 74.7662L108.331 80.7363ZM99.1319 76.2708C99.1319 59.6244 112.595 46.1413 129.188 46.1413V40.1413C109.268 40.1413 93.1319 56.3233 93.1319 76.2708H99.1319ZM129.188 46.1413C145.78 46.1413 159.243 59.6244 159.243 76.2708H165.243C165.243 56.3233 149.107 40.1413 129.188 40.1413V46.1413ZM126.188 39.0002V43.1413H132.188V39.0002H126.188ZM126.188 43.1413V47.2825H132.188V43.1413H126.188Z" fill="white"/>
</g>
</g>
<defs>
<filter id="filter0_bi_2867_1030" x="-25" y="-25" width="309.453" height="233.455" filterUnits="userSpaceOnUse" color-interpolation-filters="sRGB">
<feFlood flood-opacity="0" result="BackgroundImageFix"/>
<feGaussianBlur in="BackgroundImageFix" stdDeviation="12.5"/>
<feComposite in2="SourceAlpha" operator="in" result="effect1_backgroundBlur_2867_1030"/>
<feBlend mode="normal" in="SourceGraphic" in2="effect1_backgroundBlur_2867_1030" result="shape"/>
<feColorMatrix in="SourceAlpha" type="matrix" values="0 0 0 0 0 0 0 0 0 0 0 0 0 0 0 0 0 0 127 0" result="hardAlpha"/>
<feOffset dy="4"/>
<feGaussianBlur stdDeviation="20"/>
<feComposite in2="hardAlpha" operator="arithmetic" k2="-1" k3="1"/>
<feColorMatrix type="matrix" values="0 0 0 0 1 0 0 0 0 1 0 0 0 0 1 0 0 0 0.35 0"/>
<feBlend mode="normal" in2="shape" result="effect2_innerShadow_2867_1030"/>
</filter>
<linearGradient id="paint0_linear_2867_1030" x1="6.48639" y1="8.47487" x2="235.364" y2="179.159" gradientUnits="userSpaceOnUse">
<stop stop-color="#FFA636" stop-opacity="0.1"/>
<stop offset="0.411883" stop-color="#FFA636" stop-opacity="0.8"/>
<stop offset="0.574748" stop-color="#FFA636"/>
<stop offset="1" stop-color="#FFA636"/>
</linearGradient>
<clipPath id="clip0_2867_1030">
<rect width="105" height="105" fill="white" transform="translate(77 39)"/>
</clipPath>
</defs>
</svg>
