<svg xmlns="http://www.w3.org/2000/svg" width="29" height="28" viewBox="0 0 29 28" fill="none">
  <g opacity="0.5">
    <path d="M18.8359 12.833C19.8024 12.833 20.5859 12.0495 20.5859 11.083C20.5859 10.1165 19.8024 9.33301 18.8359 9.33301C17.8694 9.33301 17.0859 10.1165 17.0859 11.083C17.0859 12.0495 17.8694 12.833 18.8359 12.833Z" fill="white"/>
    <path d="M10.6693 12.833C11.6358 12.833 12.4193 12.0495 12.4193 11.083C12.4193 10.1165 11.6358 9.33301 10.6693 9.33301C9.70277 9.33301 8.91927 10.1165 8.91927 11.083C8.91927 12.0495 9.70277 12.833 10.6693 12.833Z" fill="white"/>
    <path d="M14.7526 20.9997C17.4126 20.9997 19.6759 19.063 20.5859 16.333H8.91927C9.82927 19.063 12.0926 20.9997 14.7526 20.9997Z" fill="white"/>
    <path d="M14.7409 2.33301C8.30094 2.33301 3.08594 7.55967 3.08594 13.9997C3.08594 20.4397 8.30094 25.6663 14.7409 25.6663C21.1926 25.6663 26.4193 20.4397 26.4193 13.9997C26.4193 7.55967 21.1926 2.33301 14.7409 2.33301ZM14.7526 23.333C9.59594 23.333 5.41927 19.1563 5.41927 13.9997C5.41927 8.84301 9.59594 4.66634 14.7526 4.66634C19.9093 4.66634 24.0859 8.84301 24.0859 13.9997C24.0859 19.1563 19.9093 23.333 14.7526 23.333Z" fill="white"/>
  </g>
</svg>