<svg xmlns="http://www.w3.org/2000/svg" width="29" height="28" viewBox="0 0 29 28" fill="none">
  <g opacity="0.5">
    <path d="M14.0365 6.99967C15.3251 6.99967 16.3698 5.95501 16.3698 4.66634C16.3698 3.37768 15.3251 2.33301 14.0365 2.33301C12.7478 2.33301 11.7031 3.37768 11.7031 4.66634C11.7031 5.95501 12.7478 6.99967 14.0365 6.99967Z" fill="white"/>
    <path d="M18.5748 9.46134C18.1198 9.00634 17.3381 8.16634 15.8215 8.16634C15.5765 8.16634 14.1648 8.16634 12.8581 8.16634C9.64979 8.15467 7.03646 5.54134 7.03646 2.33301H4.70312C4.70312 6.01967 7.16479 9.14634 10.5365 10.1613V25.6663H12.8698V18.6663H15.2031V25.6663H17.5365V11.7247L22.1448 16.333L23.7898 14.688L18.5748 9.46134Z" fill="white"/>
  </g>
</svg>