<svg xmlns="http://www.w3.org/2000/svg" width="29" height="28" viewBox="0 0 29 28" fill="none">
  <g opacity="0.5" clip-path="url(#clip0_3101_120)">
    <path d="M14.25 2.52109C17.9906 2.52109 18.4336 2.5375 19.9047 2.60312C21.2719 2.66328 22.0102 2.89297 22.5023 3.08438C23.1531 3.33594 23.6234 3.64219 24.1102 4.12891C24.6023 4.62109 24.9031 5.08594 25.1547 5.73672C25.3461 6.22891 25.5758 6.97266 25.6359 8.33437C25.7016 9.81094 25.718 10.2539 25.718 13.9891C25.718 17.7297 25.7016 18.1727 25.6359 19.6438C25.5758 21.0109 25.3461 21.7492 25.1547 22.2414C24.9031 22.8922 24.5969 23.3625 24.1102 23.8492C23.618 24.3414 23.1531 24.6422 22.5023 24.8938C22.0102 25.0852 21.2664 25.3148 19.9047 25.375C18.4281 25.4406 17.9852 25.457 14.25 25.457C10.5094 25.457 10.0664 25.4406 8.59531 25.375C7.22813 25.3148 6.48984 25.0852 5.99766 24.8938C5.34688 24.6422 4.87656 24.3359 4.38984 23.8492C3.89766 23.357 3.59687 22.8922 3.34531 22.2414C3.15391 21.7492 2.92422 21.0055 2.86406 19.6438C2.79844 18.1672 2.78203 17.7242 2.78203 13.9891C2.78203 10.2484 2.79844 9.80547 2.86406 8.33437C2.92422 6.96719 3.15391 6.22891 3.34531 5.73672C3.59687 5.08594 3.90313 4.61562 4.38984 4.12891C4.88203 3.63672 5.34688 3.33594 5.99766 3.08438C6.48984 2.89297 7.23359 2.66328 8.59531 2.60312C10.0664 2.5375 10.5094 2.52109 14.25 2.52109ZM14.25 0C10.4492 0 9.97344 0.0164062 8.48047 0.0820312C6.99297 0.147656 5.97031 0.388281 5.08437 0.732812C4.16016 1.09375 3.37813 1.56953 2.60156 2.35156C1.81953 3.12812 1.34375 3.91016 0.982812 4.82891C0.638281 5.72031 0.397656 6.7375 0.332031 8.225C0.266406 9.72344 0.25 10.1992 0.25 14C0.25 17.8008 0.266406 18.2766 0.332031 19.7695C0.397656 21.257 0.638281 22.2797 0.982812 23.1656C1.34375 24.0898 1.81953 24.8719 2.60156 25.6484C3.37813 26.425 4.16016 26.9062 5.07891 27.2617C5.97031 27.6062 6.9875 27.8469 8.475 27.9125C9.96797 27.9781 10.4437 27.9945 14.2445 27.9945C18.0453 27.9945 18.5211 27.9781 20.0141 27.9125C21.5016 27.8469 22.5242 27.6062 23.4102 27.2617C24.3289 26.9062 25.1109 26.425 25.8875 25.6484C26.6641 24.8719 27.1453 24.0898 27.5008 23.1711C27.8453 22.2797 28.0859 21.2625 28.1516 19.775C28.2172 18.282 28.2336 17.8062 28.2336 14.0055C28.2336 10.2047 28.2172 9.72891 28.1516 8.23594C28.0859 6.74844 27.8453 5.72578 27.5008 4.83984C27.1562 3.91016 26.6805 3.12812 25.8984 2.35156C25.1219 1.575 24.3398 1.09375 23.4211 0.738281C22.5297 0.39375 21.5125 0.153125 20.025 0.0875C18.5266 0.0164063 18.0508 0 14.25 0Z" fill="white"/>
    <path d="M14.2539 6.80859C10.2836 6.80859 7.0625 10.0297 7.0625 14C7.0625 17.9703 10.2836 21.1914 14.2539 21.1914C18.2242 21.1914 21.4453 17.9703 21.4453 14C21.4453 10.0297 18.2242 6.80859 14.2539 6.80859ZM14.2539 18.6648C11.6781 18.6648 9.58906 16.5758 9.58906 14C9.58906 11.4242 11.6781 9.33516 14.2539 9.33516C16.8297 9.33516 18.9187 11.4242 18.9187 14C18.9187 16.5758 16.8297 18.6648 14.2539 18.6648Z" fill="white"/>
    <path d="M23.4047 6.52461C23.4047 7.4543 22.65 8.20352 21.7258 8.20352C20.7961 8.20352 20.0469 7.44883 20.0469 6.52461C20.0469 5.59492 20.8016 4.8457 21.7258 4.8457C22.65 4.8457 23.4047 5.60039 23.4047 6.52461Z" fill="white"/>
  </g>
  <defs>
    <clipPath id="clip0_3101_120">
      <rect width="28" height="28" fill="white" transform="translate(0.25)"/>
    </clipPath>
  </defs>
</svg>