<svg xmlns="http://www.w3.org/2000/svg" width="29" height="28" viewBox="0 0 29 28" fill="none">
  <g opacity="0.5" clip-path="url(#clip0_3101_108)">
    <path d="M4.91667 15.1667C6.2 15.1667 7.25 14.1167 7.25 12.8333C7.25 11.55 6.2 10.5 4.91667 10.5C3.63333 10.5 2.58333 11.55 2.58333 12.8333C2.58333 14.1167 3.63333 15.1667 4.91667 15.1667ZM6.235 16.45C5.80333 16.38 5.37167 16.3333 4.91667 16.3333C3.76167 16.3333 2.665 16.5783 1.67333 17.01C0.81 17.3833 0.25 18.2233 0.25 19.1683V21H5.5V19.1217C5.5 18.1533 5.76833 17.2433 6.235 16.45ZM23.5833 15.1667C24.8667 15.1667 25.9167 14.1167 25.9167 12.8333C25.9167 11.55 24.8667 10.5 23.5833 10.5C22.3 10.5 21.25 11.55 21.25 12.8333C21.25 14.1167 22.3 15.1667 23.5833 15.1667ZM28.25 19.1683C28.25 18.2233 27.69 17.3833 26.8267 17.01C25.835 16.5783 24.7383 16.3333 23.5833 16.3333C23.1283 16.3333 22.6967 16.38 22.265 16.45C22.7317 17.2433 23 18.1533 23 19.1217V21H28.25V19.1683ZM19.1967 15.925C17.8317 15.3183 16.1517 14.875 14.25 14.875C12.3483 14.875 10.6683 15.33 9.30333 15.925C8.04333 16.485 7.25 17.745 7.25 19.1217V21H21.25V19.1217C21.25 17.745 20.4567 16.485 19.1967 15.925ZM9.665 18.6667C9.77 18.3983 9.81667 18.2117 10.7267 17.8617C11.8583 17.4183 13.0483 17.2083 14.25 17.2083C15.4517 17.2083 16.6417 17.4183 17.7733 17.8617C18.6717 18.2117 18.7183 18.3983 18.835 18.6667H9.665ZM14.25 9.33333C14.8917 9.33333 15.4167 9.85833 15.4167 10.5C15.4167 11.1417 14.8917 11.6667 14.25 11.6667C13.6083 11.6667 13.0833 11.1417 13.0833 10.5C13.0833 9.85833 13.6083 9.33333 14.25 9.33333ZM14.25 7C12.3133 7 10.75 8.56333 10.75 10.5C10.75 12.4367 12.3133 14 14.25 14C16.1867 14 17.75 12.4367 17.75 10.5C17.75 8.56333 16.1867 7 14.25 7Z" fill="white"/>
  </g>
  <defs>
    <clipPath id="clip0_3101_108">
      <rect width="28" height="28" fill="white" transform="translate(0.25)"/>
    </clipPath>
  </defs>
</svg>