<svg xmlns="http://www.w3.org/2000/svg" width="1108" height="1103" viewBox="0 0 1108 1103" fill="none">
  <path d="M49.6529 1067.02C79.2936 1091.08 118.933 1101.7 162.376 1101.7C261.385 1101.7 380.125 1046.75 444.981 971.989C482.408 928.899 496.565 869.087 508.952 816.353C514.48 787.798 522.961 759.895 534.257 733.094C562.924 673.989 611.234 643.287 658.129 613.557L659.368 612.761C699.714 587.367 737.672 563.389 758.553 523.662C777.576 487.562 776.249 446.596 775.188 407.045L771.914 406.514L768.198 407.665C769.348 446.419 770.498 486.412 752.36 521.007C732.275 559.142 695.025 582.943 655.032 607.541L653.705 608.425C606.279 638.597 557.262 669.83 527.709 730.616C516.554 757.713 508.194 785.877 502.758 814.672C490.459 866.698 476.214 925.714 440.291 967.477C348.803 1073.03 148.308 1138.6 54.0769 1061.8C23.9052 1037.38 7.97868 996.41 7.97868 943.41C7.97868 862.451 43.8133 772.555 79.2937 725.573C103.204 695.631 129.864 667.994 158.926 643.021L162.288 639.924C183.07 621.489 202.775 601.873 221.304 581.174C238.38 561.266 253.687 542.066 269.171 522.423C300.405 482.873 329.957 445.534 369.419 413.416C414.721 376.608 464.181 354.223 516.561 330.51C575.754 303.966 636.982 276.184 693.521 225.485C709.624 210.886 727.054 193.986 743.512 178.06C822.701 101.524 919.321 8.08967 1027.44 8.08967C1039.32 8.06897 1051.17 9.19498 1062.84 11.4519H1063.54C1072.31 15.9635 1080.06 22.2129 1086.32 29.8191C1092.59 37.4252 1097.24 46.2285 1100 55.6919V56.2227C1098.94 171.247 1008.24 204.957 920.471 237.076C869.418 255.745 811.641 276.803 775.984 315.823L775.276 317.061C766.428 344.225 767.578 373.865 768.463 405.541L771.825 406.249H775.099V405.453C774.214 374.839 773.329 345.906 781.381 320.07C815.977 282.554 869.861 262.735 922.949 243.623C1012.76 210.62 1105.75 176.644 1106.81 56.4882L1106.28 53.6568C1103.24 43.2992 1098.1 33.6757 1091.19 25.3815C1084.28 17.0872 1075.75 10.2986 1066.11 5.43532H1064.61C938.433 -18.8966 827.922 87.8101 739.176 173.547C722.719 189.473 705.377 206.285 689.362 220.795C633.266 270.786 572.48 298.215 513.729 324.759C460.642 348.649 411.093 371.211 365.172 408.55C325.091 441.11 293.946 480.484 263.862 518.618C248.467 538.172 233.248 557.373 216.26 577.104C197.856 597.605 178.3 617.043 157.687 635.323L154.324 638.332C125.093 663.679 98.2317 691.636 74.0731 721.857C37.9734 769.724 1.43126 861.301 1.43126 943.676C1.07734 998.622 17.8886 1041.27 49.6529 1067.02Z" stroke="#7F3EB2" stroke-opacity="0.2" stroke-width="2" stroke-miterlimit="10"/>
</svg>